# Blender 3.3.0
# www.blender.org
mtllib kaasje_dun.mtl
o Circle
v -0.284798 -0.284798 -0.224842
v -0.284798 0.715202 -0.224842
v -0.265583 0.520112 -0.224842
v -0.208677 0.332519 -0.224842
v -0.116267 0.159632 -0.224842
v 0.008096 0.008096 -0.224842
v 0.159632 -0.116267 -0.224842
v 0.332519 -0.208677 -0.224842
v 0.520112 -0.265583 -0.224842
v 0.715202 -0.284798 -0.224842
v -0.284798 -0.284798 0.224842
v -0.284798 0.715202 0.224842
v -0.265583 0.520112 0.224842
v -0.208677 0.332519 0.224842
v -0.116267 0.159632 0.224842
v 0.008096 0.008096 0.224842
v 0.159632 -0.116267 0.224842
v 0.332519 -0.208677 0.224842
v 0.520112 -0.265583 0.224842
v 0.715202 -0.284798 0.224842
vn -0.0000 -0.0000 -1.0000
vn -0.0000 -0.0000 1.0000
vn -1.0000 -0.0000 -0.0000
vn 0.2903 0.9569 -0.0000
vn 0.7730 0.6344 -0.0000
vn 0.9952 0.0980 -0.0000
vn 0.0980 0.9952 -0.0000
vn 0.6344 0.7730 -0.0000
vn 0.9569 0.2903 -0.0000
vn -0.0000 -1.0000 -0.0000
vn 0.4714 0.8819 -0.0000
vn 0.8819 0.4714 -0.0000
vt 0.000000 0.000000
vt 0.000000 0.000000
vt 0.000000 0.000000
vt 0.000000 0.000000
vt 0.000000 0.000000
vt 0.000000 0.000000
vt 0.000000 0.000000
vt 0.000000 0.000000
vt 0.000000 0.000000
vt 0.000000 0.000000
vt 0.000000 0.000000
vt 0.000000 0.000000
vt 0.000000 0.000000
vt 0.000000 0.000000
vt 0.000000 0.000000
vt 0.000000 0.000000
vt 0.000000 0.000000
vt 0.000000 0.000000
vt 0.000000 0.000000
vt 0.000000 0.000000
s 0
f 1/1/1 2/2/1 3/3/1 4/4/1 5/5/1 6/6/1 7/7/1 8/8/1 9/9/1 10/10/1
f 11/11/2 20/20/2 19/19/2 18/18/2 17/17/2 16/16/2 15/15/2 14/14/2 13/13/2 12/12/2
f 1/1/3 11/11/3 12/12/3 2/2/3
f 8/8/4 18/18/4 19/19/4 9/9/4
f 5/5/5 15/15/5 16/16/5 6/6/5
f 2/2/6 12/12/6 13/13/6 3/3/6
f 9/9/7 19/19/7 20/20/7 10/10/7
f 6/6/8 16/16/8 17/17/8 7/7/8
f 3/3/9 13/13/9 14/14/9 4/4/9
f 10/10/10 20/20/10 11/11/10 1/1/10
f 7/7/11 17/17/11 18/18/11 8/8/11
f 4/4/12 14/14/12 15/15/12 5/5/12
